<svg width='24' height='24' viewBox='0 0 24 24' xmlns='http://www.w3.org/2000/svg' xmlns:xlink='http://www.w3.org/1999/xlink'><rect width='24' height='24' stroke='none' fill='#000000' opacity='0'/>


<g transform="matrix(0.42 0 0 0.42 12 12)" >
<g style="" >
<g transform="matrix(1 0 0 1 0 0)" >
<linearGradient id="SVGID_I08en1acjnNoliAhiqwdga_1" gradientUnits="userSpaceOnUse" gradientTransform="matrix(1 0 0 1 0 0)" x1="24" y1="6" x2="24" y2="42">
<stop offset="0%" style="stop-color:rgb(248,94,85);stop-opacity: 1"/>
<stop offset="100%" style="stop-color:rgb(212,20,20);stop-opacity: 1"/>
</linearGradient>
<path style="stroke: none; stroke-width: 1; stroke-dasharray: none; stroke-linecap: butt; stroke-dashoffset: 0; stroke-linejoin: miter; stroke-miterlimit: 4; fill: url(#SVGID_I08en1acjnNoliAhiqwdga_1); fill-rule: nonzero; opacity: 1;" transform=" translate(-24, -24)" d="M 24 6 C 14.038818463553257 6.05503338658502 5.994344478141077 14.148668046352496 6 24.11000000000001 C 6.060663568473118 34.03658010431187 14.146202102632486 42.0402318003855 24.072885437581757 41.99985106858867 C 33.99956877253103 41.95947033679184 42.01972472119002 33.89030232400216 41.99962699465773 23.963557201997247 C 41.97952926812544 14.03681207999234 33.92676546522083 6.000185362639602 24.00000000000001 6 Z M 24 37 C 16.820298252199684 37 11 31.179701747800316 11 24 C 11 16.820298252199684 16.820298252199684 11 24 11 C 31.179701747800316 11 37 16.82029825219968 37 23.999999999999996 C 37 31.179701747800316 31.179701747800316 37 24 37 Z" stroke-linecap="round" />
</g>
<g transform="matrix(1 0 0 1 0 0)" >
<radialGradient id="SVGID_I08en1acjnNoliAhiqwdgb_2" gradientUnits="userSpaceOnUse" gradientTransform="matrix(1 0 0 1 0 0)" cx="24" cy="24" r="18" fx="24" fy="24">
<stop offset="75.6%" style="stop-color:rgb(212,32,32);stop-opacity: 1"/>
<stop offset="78.7%" style="stop-color:rgb(222,52,52);stop-opacity: 0.759"/>
<stop offset="85.7%" style="stop-color:rgb(248,104,104);stop-opacity: 0.158"/>
<stop offset="87.5%" style="stop-color:rgb(255,117,117);stop-opacity: 0"/>
</radialGradient>
<path style="stroke: none; stroke-width: 1; stroke-dasharray: none; stroke-linecap: butt; stroke-dashoffset: 0; stroke-linejoin: miter; stroke-miterlimit: 4; fill: url(#SVGID_I08en1acjnNoliAhiqwdgb_2); fill-rule: nonzero; opacity: 0.8;" transform=" translate(-24, -24)" d="M 24 6 C 14.038818463553257 6.05503338658502 5.994344478141077 14.148668046352496 6 24.11000000000001 C 6.060663568473118 34.03658010431187 14.146202102632486 42.0402318003855 24.072885437581757 41.99985106858867 C 33.99956877253103 41.95947033679184 42.01972472119002 33.89030232400216 41.99962699465773 23.963557201997247 C 41.97952926812544 14.03681207999234 33.92676546522083 6.000185362639602 24.00000000000001 6 Z M 24 37 C 16.820298252199684 37 11 31.179701747800316 11 24 C 11 16.820298252199684 16.820298252199684 11 24 11 C 31.179701747800316 11 37 16.82029825219968 37 23.999999999999996 C 37 31.179701747800316 31.179701747800316 37 24 37 Z" stroke-linecap="round" />
</g>
</g>
</g>
</svg>