<!DOCTYPE svg PUBLIC "-//W3C//DTD SVG 1.1//EN" "http://www.w3.org/Graphics/SVG/1.1/DTD/svg11.dtd">
<!-- Uploaded to: SVG Repo, www.svgrepo.com, Transformed by: SVG Repo Mixer Tools -->
<svg height="800px" width="800px" version="1.1" id="Capa_1" xmlns="http://www.w3.org/2000/svg" xmlns:xlink="http://www.w3.org/1999/xlink" viewBox="0 0 15.906 15.906" xml:space="preserve" fill="#000000" transform="rotate(0)matrix(1, 0, 0, 1, 0, 0)" stroke="#000000">
<g id="SVGRepo_bgCarrier" stroke-width="0"/>
<g id="SVGRepo_tracerCarrier" stroke-linecap="round" stroke-linejoin="round"/>
<g id="SVGRepo_iconCarrier"> <g> <g> <path style="fill:#030104;" d="M7.954,10.284c1.832,0,3.318-2.303,3.318-5.142c0-2.84-0.56-5.142-2.392-5.142 S4.635,2.302,4.635,5.142C4.635,7.981,6.121,10.284,7.954,10.284z"/> <path style="fill:#030104;" d="M6.029,14.22c0,0.931,0.755,1.686,1.686,1.686h0.479c0.932,0,1.686-0.755,1.686-1.686v-2.36 c0,0-0.756,0.781-1.9,0.781c-1.145,0-1.949-0.781-1.949-0.781v2.36H6.029z"/> </g> </g> </g>
</svg>