<?xml version="1.0" standalone="no"?>
<!DOCTYPE svg PUBLIC "-//W3C//DTD SVG 20010904//EN"
 "http://www.w3.org/TR/2001/REC-SVG-20010904/DTD/svg10.dtd">
<svg version="1.0" xmlns="http://www.w3.org/2000/svg"
 width="467.000000pt" height="457.000000pt" viewBox="0 0 467.000000 457.000000"
 preserveAspectRatio="xMidYMid meet">

<g transform="translate(0.000000,457.000000) scale(0.100000,-0.100000)"
fill="#f8636b" stroke="none">
<path d="M2180 4444 c-208 -27 -407 -101 -580 -217 -96 -64 -273 -241 -337
-337 -95 -142 -163 -302 -199 -470 -26 -119 -26 -381 0 -500 55 -257 169 -466
355 -651 185 -186 394 -300 651 -355 118 -25 381 -26 498 0 117 25 211 58 330
117 l103 51 47 -17 c77 -29 239 -114 332 -175 462 -304 792 -839 846 -1372 l7
-68 -1913 0 -1913 0 7 67 c43 417 266 864 582 1162 97 92 114 119 114 179 0
108 -99 183 -202 152 -51 -15 -214 -170 -331 -315 -306 -379 -486 -863 -491
-1322 -1 -155 3 -169 68 -217 l27 -21 2139 0 2139 0 27 21 c65 48 69 62 68
217 -3 240 -57 503 -153 745 -194 486 -543 878 -1012 1138 -57 32 -106 59
-108 60 -2 2 27 42 63 91 71 93 160 265 195 373 80 251 79 538 -4 787 -67 201
-160 351 -314 504 -182 182 -382 293 -631 350 -83 19 -331 33 -410 23z m359
-339 c178 -43 320 -124 456 -260 180 -180 266 -372 281 -625 10 -168 -22 -323
-98 -474 -51 -102 -85 -152 -160 -232 -195 -208 -471 -318 -752 -300 -247 15
-441 102 -616 276 -139 137 -221 281 -267 466 -26 104 -23 344 5 445 102 375
389 643 765 715 89 17 295 11 386 -11z"/>
</g>
</svg>
